SOURCE: DVD-R
 
http://www.imdb.com/title/tt0408056/
 
http://www.rottentomatoes.com/m/1151138-omagh/


-SAMPLE: Yes

-SUBTITLES: English

-LANGUAGE: English


DIRECTOR: Pete Travis

PRODUCER: Paul Greengrass


CAST:
---------
Gerard McSorley, Michèle Forbes, Brenda Fricker, Stuart Graham, Fiona Glascott, Ian McElhinney


PLOT:
--------
15 August 1998: the Real IRA (RIRA) exploded a bomb on a crowded street in Omagh, just into Northern Ireland, to halt the Good Friday accords and peace process; 29 people died. Families formed the Omagh Support Group to press the police in their inquiries. The film focuses on the Gallagher family, who lose their son Aiden. His father, Michael, a mechanic, becomes chair of the support group. The press for answers strains his relationship with his wife. High-ranking police speak in bromides. Shadowy figures offer intelligence that calls into question the integrity before and after the bombing of the Royal Ulster Constabulary and its Special Branch. Will the murders remain unsolved?


General
-----------
Format : AVI
Format/Info : Audio Video Interleave
File size : 965 MiB
Duration : 1h 41mn
Overall bit rate : 1327 Kbps
Writing library : VirtualDub build 32842/release

Video
--------
Format : MPEG-4 Visual
Format profile : Advanced Simple@L5
Format settings, BVOP : 2
Format settings, QPel : No
Format settings, GMC : No warppoints
Format settings, Matrix : Default (H.263)
Codec ID : XVID
Codec ID/Hint : XviD
Duration : 1h 41mn
Bit rate : 1189 Kbps
Width : 648 pixels
Height : 356 pixels
Display aspect ratio : 1.85:1
Frame rate : 25.000 fps
Color space : YUV
Chroma subsampling : 4:2:0
Bit depth : 8 bits
Scan type : Progressive
Compression mode : Lossy
Bits/(Pixel*Frame) : 0.206
Stream size : 865 MiB (90%)
Writing library : XviD 64

Audio
-----------
Format : MPEG Audio
Format version : Version 1
Format profile : Layer 3
Mode : Joint stereo
Mode extension : MS Stereo
Codec ID : 55
Codec ID/Hint : MP3
Duration : 1h 41mn
Bit rate mode : Constant
Bit rate : 128 Kbps
Channel(s) : 2 channels
Sampling rate : 48.0 KHz
Compression mode : Lossy
Stream size : 93.1 MiB (10%)
Alignment : Split accross interleaves
Interleave, duration : 40 ms (1.00 video frame)
Interleave, preload duration : 500 ms